<?xml version="1.0" encoding="UTF-8"?>
<!DOCTYPE svg PUBLIC "-//W3C//DTD SVG 1.1//EN" "http://www.w3.org/Graphics/SVG/1.1/DTD/svg11.dtd">
<!-- Creator: CorelDRAW -->
<svg xmlns="http://www.w3.org/2000/svg" xml:space="preserve" width="677.332mm" height="240.758mm" version="1.1" style="shape-rendering:geometricPrecision; text-rendering:geometricPrecision; image-rendering:optimizeQuality; fill-rule:evenodd; clip-rule:evenodd"
viewBox="0 0 288997.5 102724.28"
 xmlns:xlink="http://www.w3.org/1999/xlink"
 xmlns:xodm="http://www.corel.com/coreldraw/odm/2003">
 <defs>
  <style type="text/css">
   <![CDATA[
    .fil10 {fill:none}
    .fil0 {fill:#0067A4}
    .fil3 {fill:#E6E6E6}
    .fil12 {fill:#FDBA2F}
    .fil9 {fill:#0C78BA;fill-rule:nonzero;fill-opacity:0.050980}
    .fil8 {fill:#99FFFF;fill-rule:nonzero;fill-opacity:0.050980}
    .fil5 {fill:#99FFFF;fill-rule:nonzero;fill-opacity:0.149020}
    .fil11 {fill:#003761;fill-opacity:0.231373}
    .fil2 {fill:#00CCFF;fill-opacity:0.239216}
    .fil6 {fill:#99FFFF;fill-rule:nonzero;fill-opacity:0.250980}
    .fil4 {fill:#99FFFF;fill-rule:nonzero;fill-opacity:0.301961}
    .fil1 {fill:#000066;fill-opacity:0.360784}
    .fil7 {fill:#00CCFF;fill-opacity:0.541176}
   ]]>
  </style>
   <clipPath id="id0">
    <path d="M0.43 0.17l94572.36 0 37981.33 91901.74c1440.74,3478.39 5470.77,5157.93 8943.82,3704.69l147499.48 -61271.09 0 67490.83 -0.04 0 0 -9954.81c-958.17,2687.17 -2599.49,3779.7 -4732.63,3762.68 -93057.68,0 -186115.48,0 -279173.12,0l-80.77 -0.21 -83.12 -0.68 -0.04 0 -85.33 -1.32 -0.04 0 -87.42 -1.92 -0.13 0 -89.43 -2.69 -0.13 0c-30.12,-1.02 -60.59,-2.18 -91.31,-3.5l-0.13 0c-30.72,-1.32 -61.74,-2.86 -93.06,-4.48l-0.21 -0.04c-31.27,-1.66 -62.85,-3.41 -94.68,-5.42l-0.21 -0.04c-31.83,-2.05 -63.87,-4.14 -96.21,-6.53l-0.26 -0.04c-32.34,-2.39 -64.85,-4.95 -97.62,-7.72l-0.3 -0.04c-32.77,-2.86 -65.71,-5.8 -98.9,-9l-0.3 -0.04c-33.15,-3.24 -66.56,-6.7 -100.1,-10.41l-0.34 0c-33.58,-3.71 -67.29,-7.64 -101.21,-11.86l-0.34 -0.04c-33.88,-4.22 -67.93,-8.66 -102.1,-13.4l-0.43 -0.04c-34.18,-4.78 -68.48,-9.77 -102.91,-15.06l-0.47 -0.04c-34.43,-5.29 -68.99,-10.88 -103.64,-16.73l-0.47 -0.09c-34.65,-5.85 -69.38,-12.07 -104.19,-18.56l-0.51 -0.09c-34.82,-6.49 -69.72,-13.27 -104.7,-20.44l-0.51 -0.13c-34.99,-7.17 -70.02,-14.63 -105.05,-22.44l-0.55 -0.09c-35.07,-7.81 -70.14,-16 -105.3,-24.53l-0.55 -0.13c-35.11,-8.53 -70.27,-17.45 -105.52,-26.67l-0.6 -0.13c-35.2,-9.26 -70.27,-18.9 -105.52,-28.93l-0.64 -0.17c-35.11,-9.98 -70.19,-20.44 -105.3,-31.23l-0.68 -0.21c-35.07,-10.84 -70.1,-22.02 -105.09,-33.66l-0.68 -0.21c-105.39,-35.07 -210.35,-73.81 -314.29,-116.91l-0.77 -0.3c-270.47,-112 -534.19,-252.55 -782.13,-428.25l-19.46 -13.53 -0.9 -0.64c-31.4,-22.57 -62.59,-45.74 -93.44,-69.5 -185.9,-142.98 -361.65,-307.29 -523.18,-496.09l-3.11 -3.54c-241.41,-282.93 -450.78,-620.85 -614.62,-1024.05l-4.52 -10.71c-69.85,-173.4 -131.03,-359.09 -183,-557.27 -2.43,-9.22 -5.08,-18.09 -7.47,-27.39 -24.79,-96.94 -47.1,-197.16 -67.29,-300.25 -1.54,-7.89 -3.33,-15.4 -4.82,-23.34 -19.33,-100.86 -36.01,-205.1 -50.65,-312.02 -1.54,-11.31 -3.41,-22.19 -4.91,-33.62 -7.51,-56.36 -14.12,-113.84 -20.18,-171.99l-0.98 -8.62c-25.39,-245.25 -38.7,-505.82 -38.87,-782.64l0 -0.26 0 -90934.31 0 0.04 -0.04 -0.04 0.26 0.13 0.17 0.04z"/>
   </clipPath>
 </defs>
 <g id="Layer_x0020_1">
  <metadata id="CorelCorpID_0Corel-Layer"/>
  <path class="fil0" d="M0.43 0.17l94572.36 0 38029.16 91929.43c1440.74,3478.39 5470.77,5157.93 8943.82,3704.69l147451.61 -61298.65 0 67490.83 -0.04 0 0 -9954.81c-958.17,2687.17 -2599.49,3779.7 -4732.63,3762.68 -93057.68,0 -186115.48,0 -279173.12,0 -1696.61,0 -5089.37,-268.63 -5091.2,-4699.82l0 -90934.31 0 0.04 -0.04 -0.04 0.04 -0.04 0.04 0z"/>
  <path class="fil1" d="M288997.42 33165.72l0 57703.18 -10535.56 4155.9c-2310.38,911.37 -4946.22,-233.26 -5857.54,-2543.59l-17760.32 -45024.25 34153.46 -14291.15 0 -0.09 -0.04 0 -0.04 -0.04 0.04 0.04z"/>
  <path class="fil2" d="M237691.04 85670.01l33538.59 -13229.76c1258.38,-496.35 2694,127.06 3190.38,1385.4l8602.74 21808.65 -44044.91 0 -2672.07 -6773.9c-496.39,-1258.38 127.02,-2694 1385.4,-3190.38l-0.04 0 -0.04 0 -0.04 0z"/>
  <path class="fil3" d="M0.43 90930.94c0,4434.6 3394.16,4703.36 5091.24,4703.36 93057.64,0 186115.44,0 279173.12,0 2133.1,17.02 3774.45,-1075.51 4732.63,-3762.68l0 10852.66 -288996.99 0 0 -11793.34z"/>
  <g>
  </g>
  <g style="clip-path:url(#id0)">
   <g>
    <path id="_1" class="fil4" d="M134567.92 36950.07c-2502.76,-9180.88 -6729.74,-17776.66 -12389.31,-25334.87l-112063.36 79786.74c-684.42,491.31 -75.14,1551.29 691.46,1204.19l123353.19 -55644.84 408.28 -11.26 -0.21 0.09 0.04 0 0 0.04 -0.09 -0.04 0 -0.04z"/>
    <path class="fil5" d="M5705.69 86972.12l74248.9 -103251.3c-3.07,-3.93 -3.07,-3.93 -3.07,-7.13 -9431.33,-2303.76 -18865.95,-2714.86 -27917.93,-1490.53l-47528.08 104054.38c-351.23,766.6 708.66,1378.7 1200.27,694.58l-0.04 0 -0.04 0 0 -0.04 0 0.04z"/>
    <path class="fil6" d="M8626.68 89454.36l105873.83 -86596.74c-6627.17,-6468.88 -14510.29,-11765.94 -23379.31,-15469.83l-83472.45 101081.38c-538.12,651.99 325.81,1518.01 977.8,984.93l0 0.21 0.04 0 0 0.04 0.09 0z"/>
    <path class="fil7" d="M206.59 99176.43c10301.78,15007.91 26058.84,26330.93 45204.09,30692.91 40435.88,9216.21 80686.12,-16093.15 89901.68,-56525.32 1927.14,-8465.05 2339.35,-16917.77 1422.52,-25076.78l-136528.17 50909.19 -0.21 0 0.04 0 0 0.04 0 -0.04 0.04 0z"/>
    <path class="fil8" d="M2242.24 85330.13l38029.72 -100540.37c-8980.77,2736.36 -17358.18,7134.87 -24687.18,12911.94l-14681.68 87266.7c-140.03,830.47 1041.63,1149.49 1339.23,361.43l0 0.21 -0.04 0 -0.04 0.04 -0.04 0.04 0.04 0z"/>
    <path class="fil9" d="M58945.52 -25877.38c-45507.58,0 -82534.16,37023.37 -82534.16,82534.11 0,45508.78 37026.57,82531.34 82534.16,82531.34 45508.73,0 82534.2,-37022.52 82534.2,-82531.34 0,-45510.7 -37025.42,-82534.11 -82534.2,-82534.11zm0 169592.76c-48004.58,0 -87057.54,-39057.18 -87057.54,-87058.74 0,-48004.54 39052.96,-87061.51 87057.54,-87061.51 48005.44,0 87058.74,39057.18 87058.74,87061.51 0,48001.34 -39053.09,87058.74 -87058.74,87058.74z"/>
   </g>
  </g>
  <path class="fil10" d="M0.43 0.17l94572.36 0 37981.33 91901.74c1440.74,3478.39 5470.77,5157.93 8943.82,3704.69l147499.48 -61271.09 0 67490.83 -0.04 0 0 -9954.81c-958.17,2687.17 -2599.49,3779.7 -4732.63,3762.68 -93057.68,0 -186115.48,0 -279173.12,0l-80.77 -0.21 -83.12 -0.68 -0.04 0 -85.33 -1.32 -0.04 0 -87.42 -1.92 -0.13 0 -89.43 -2.69 -0.13 0c-30.12,-1.02 -60.59,-2.18 -91.31,-3.5l-0.13 0c-30.72,-1.32 -61.74,-2.86 -93.06,-4.48l-0.21 -0.04c-31.27,-1.66 -62.85,-3.41 -94.68,-5.42l-0.21 -0.04c-31.83,-2.05 -63.87,-4.14 -96.21,-6.53l-0.26 -0.04c-32.34,-2.39 -64.85,-4.95 -97.62,-7.72l-0.3 -0.04c-32.77,-2.86 -65.71,-5.8 -98.9,-9l-0.3 -0.04c-33.15,-3.24 -66.56,-6.7 -100.1,-10.41l-0.34 0c-33.58,-3.71 -67.29,-7.64 -101.21,-11.86l-0.34 -0.04c-33.88,-4.22 -67.93,-8.66 -102.1,-13.4l-0.43 -0.04c-34.18,-4.78 -68.48,-9.77 -102.91,-15.06l-0.47 -0.04c-34.43,-5.29 -68.99,-10.88 -103.64,-16.73l-0.47 -0.09c-34.65,-5.85 -69.38,-12.07 -104.19,-18.56l-0.51 -0.09c-34.82,-6.49 -69.72,-13.27 -104.7,-20.44l-0.51 -0.13c-34.99,-7.17 -70.02,-14.63 -105.05,-22.44l-0.55 -0.09c-35.07,-7.81 -70.14,-16 -105.3,-24.53l-0.55 -0.13c-35.11,-8.53 -70.27,-17.45 -105.52,-26.67l-0.6 -0.13c-35.2,-9.26 -70.27,-18.9 -105.52,-28.93l-0.64 -0.17c-35.11,-9.98 -70.19,-20.44 -105.3,-31.23l-0.68 -0.21c-35.07,-10.84 -70.1,-22.02 -105.09,-33.66l-0.68 -0.21c-105.39,-35.07 -210.35,-73.81 -314.29,-116.91l-0.77 -0.3c-270.47,-112 -534.19,-252.55 -782.13,-428.25l-19.46 -13.53 -0.9 -0.64c-31.4,-22.57 -62.59,-45.74 -93.44,-69.5 -185.9,-142.98 -361.65,-307.29 -523.18,-496.09l-3.11 -3.54c-241.41,-282.93 -450.78,-620.85 -614.62,-1024.05l-4.52 -10.71c-69.85,-173.4 -131.03,-359.09 -183,-557.27 -2.43,-9.22 -5.08,-18.09 -7.47,-27.39 -24.79,-96.94 -47.1,-197.16 -67.29,-300.25 -1.54,-7.89 -3.33,-15.4 -4.82,-23.34 -19.33,-100.86 -36.01,-205.1 -50.65,-312.02 -1.54,-11.31 -3.41,-22.19 -4.91,-33.62 -7.51,-56.36 -14.12,-113.84 -20.18,-171.99l-0.98 -8.62c-25.39,-245.25 -38.7,-505.82 -38.87,-782.64l0 -0.26 0 -90934.31 0 0.04 -0.04 -0.04 0.26 0.13 0.17 0.04z"/>
  <path class="fil11" d="M288997.46 34155.72l0.04 7819.07 -144292.54 59960.18c-4306.04,1789.33 -9293.13,-280.32 -11077.64,-4588.5l-39912.06 -96356.18 1715.13 0 37673.02 90950.48c1440.74,3478.39 5470.77,5157.93 8943.82,3704.69l146950.27 -61489.75 -0.09 0 0 -0.04 0 -0.04 0.04 0.09z"/>
  <path class="fil12" d="M288997.46 33165.68l0.04 7819.07 -144292.54 59960.18c-4306.04,1789.33 -9293.13,-280.32 -11077.64,-4588.5l-39912.06 -96356.18 1715.13 0 37673.02 90950.48c1440.74,3478.39 5470.77,5157.93 8943.82,3704.69l146950.27 -61489.75 -0.09 0 0 -0.04 0 -0.04 0.04 0.09z"/>
 </g>
</svg>
