<?xml version="1.0" encoding="UTF-8"?>
<!DOCTYPE svg PUBLIC "-//W3C//DTD SVG 1.1//EN" "http://www.w3.org/Graphics/SVG/1.1/DTD/svg11.dtd">
<!-- Creator: CorelDRAW -->
<svg xmlns="http://www.w3.org/2000/svg" xml:space="preserve" width="494.554mm" height="159.037mm" version="1.1" style="shape-rendering:geometricPrecision; text-rendering:geometricPrecision; image-rendering:optimizeQuality; fill-rule:evenodd; clip-rule:evenodd"
viewBox="0 0 31046.71 9983.92"
 xmlns:xlink="http://www.w3.org/1999/xlink"
 xmlns:xodm="http://www.corel.com/coreldraw/odm/2003">
 <defs>
  <style type="text/css">
   <![CDATA[
    .fil1 {fill:#FDBA2F;fill-rule:nonzero}
    .fil0 {fill:white;fill-rule:nonzero}
    .fil2 {fill:url(#id0)}
   ]]>
  </style>
  <linearGradient id="id0" gradientUnits="userSpaceOnUse" x1="1442.83" y1="6533.84" x2="9246.99" y2="6533.84">
   <stop offset="0" style="stop-opacity:1; stop-color:white"/>
   <stop offset="1" style="stop-opacity:1; stop-color:#CCCCCC"/>
  </linearGradient>
 </defs>
 <g id="Layer_x0020_1">
  <metadata id="CorelCorpID_0Corel-Layer"/>
  <polygon class="fil0" points="13230.73,9405.68 13020.86,9405.68 13020.86,8190.43 13230.73,8190.43 "/>
  <polygon class="fil0" points="14227.28,9405.68 14017.34,9405.68 14017.34,8190.43 14227.28,8190.43 "/>
  <polygon class="fil0" points="12843.58,9405.68 12633.7,9405.68 12633.7,8190.43 12843.58,8190.43 "/>
  <polygon class="fil0" points="13020.75,8190.48 13286.1,8190.48 14227.39,9405.74 13976.18,9408.6 "/>
  <path class="fil0" d="M15759.36 8860l139.43 -147.3c38.02,-40.05 90.76,-62.64 145.84,-62.64l526.76 0 0 209.94 -812.04 0z"/>
  <path class="fil0" d="M15849.19 8860l-209.88 0 0 -367.01c0,-167.03 135.53,-302.56 302.5,-302.56l818.27 0 0 209.94 -838.99 0c-39.65,0 -71.9,32.2 -71.9,71.84l0 387.8z"/>
  <path class="fil0" d="M15849.19 8676.15l-209.88 0 0 429.9c0,167.15 135.53,302.5 302.5,302.5l818.27 0 0 -209.89 -838.99 0c-39.65,0 -71.9,-32.07 -71.9,-71.9l0 -450.62 0 0.01z"/>
  <path class="fil0" d="M15527.07 8206.85l-593.95 0c-335.4,0 -607.51,272.11 -607.51,607.51 0,335.58 272.11,607.75 607.51,607.75l593.95 0 0 -220.01 -608.57 0c-211.92,0 -383.66,-171.7 -383.66,-383.68 0,-211.92 171.75,-383.66 383.66,-383.66l608.57 0 0 -227.93 0 0.02z"/>
  <path class="fil0" d="M11433.23 9201.63l0 220.37 700.15 0c198.65,0 359.68,-160.8 359.68,-359.62l0 -0.18c0,-198.64 -161.04,-359.62 -359.68,-359.62l-435.6 0c-76.39,0 -138.62,-62.06 -138.62,-138.67l0 -2.62c0,-76.63 62.24,-138.68 138.62,-138.68l703.63 0 0 -217.5 -700.15 0c-198.59,0 -359.62,161.03 -359.62,359.68 0,198.59 161.04,359.39 359.62,359.39l435.6 0c76.61,0 138.67,62.24 138.67,138.85 0,76.63 -62.06,138.62 -138.67,138.62l-703.64 0 0.01 -0.02z"/>
  <path class="fil0" d="M18800.67 9194.41l0 218.73 -863.21 0 -358.81 0 0 -360.44c0,-50.71 10.49,-97.98 29.81,-141.94 52.57,-126.11 174.95,-215.41 318.51,-220.54l525.37 0 5.12 0c73.76,-6.99 129.6,-68.4 129.6,-141.94 0,-78.65 -63.06,-143.56 -141.71,-143.56l-863.21 0 0 -218.73 863.21 0c199.46,0 360.67,161.04 360.67,360.67 0,50.71 -10.48,97.93 -29.81,141.71 -17.65,40.23 -42.09,77.2 -73.47,108.64 -63.11,64.68 -150.55,106.83 -246.9,110.26l-5.36 0 -5.12 0 -518.38 0c-71.9,6.99 -127.74,68.4 -127.74,141.76l0 141.89 1001.43 3.5 0.01 0z"/>
  <path class="fil0" d="M19376.92 8403.04c-97.98,0 -178.5,80.51 -178.5,178.5l0 432.57c0,98.16 80.51,178.68 178.5,178.68l378.3 0c97.98,0 178.5,-80.51 178.5,-178.68l0 -432.57c0,-97.98 -80.51,-178.5 -178.5,-178.5l-378.3 0zm378.3 -218.91c218.73,0 395.54,176.81 395.54,395.77l0 432.33c0,218.9 -176.81,395.77 -395.54,395.77l-378.3 0c-218.73,0 -395.77,-176.86 -395.77,-395.77l0 -432.33c0,-218.96 177.04,-395.77 395.77,-395.77l378.3 0z"/>
  <path class="fil0" d="M20723.64 8403.04c-98.16,0 -178.68,80.51 -178.68,178.5l0 432.57c0,98.16 80.51,178.68 178.68,178.68l378.14 0c98.16,0 178.68,-80.51 178.68,-178.68l0 -432.57c0,-97.98 -80.51,-178.5 -178.68,-178.5l-378.14 0zm378.13 -218.91c218.9,0 395.77,176.81 395.77,395.77l0 432.33c0,218.9 -176.86,395.77 -395.77,395.77l-378.14 0c-218.9,0 -395.78,-176.86 -395.78,-395.77l0 -432.33c0,-218.96 176.87,-395.77 395.78,-395.77l378.14 0z"/>
  <path class="fil0" d="M22644.53 8401.29c26.26,52.57 40.23,160.56 40.23,221.99l-528.64 784.8 -269.26 0 579.16 -856.24c-10.49,-77.02 -71.9,-138.27 -148.93,-148.76l-642.62 0 0 -218.9 621.72 0c61.18,0 119.11,13.97 171.46,40.23 77.03,38.66 140.07,101.48 176.86,178.68l0 -1.8 0.03 0z"/>
  <path class="fil0" d="M27619.86 6452.95c-333.54,0 -651.3,140.89 -875.78,387.34l0 -5402.2 -1570.58 0 0 6269.37 785.44 0 785.14 0 4302.63 0 0 -1254.5 -3426.84 0 -0.01 0z"/>
  <path class="fil0" d="M16226.05 4560.18c0,1031.41 -836.08,1867.73 -1867.72,1867.73l-1446.17 0 0 -2959.8c0,-268.86 -162.84,-510.75 -411.96,-611.83l-403.17 -163.89 2261.28 0c1031.64,0 1867.72,836.32 1867.72,1867.78l0.01 0zm-1564.17 -3122.28l-3320.24 0 0 947.87 0 306.63 0 5015.05 581.84 0 988.67 0 1749.73 0c1731.14,0 3134.75,-1403.36 3134.75,-3134.57 0,-1731.38 -1403.61,-3134.97 -3134.75,-3134.97l0 -0.01z"/>
  <path class="fil0" d="M23103.52 4560.18c0,1031.41 -836.14,1867.73 -1867.78,1867.73l-1446.11 0 0 -2959.8c0,-268.86 -162.84,-510.75 -411.96,-611.83l-403.22 -163.89 2261.28 0c1031.64,0 1867.78,836.32 1867.78,1867.78zm-1564.23 -3122.28l-3320.23 0 0 947.87 0 306.63 0 5015.05 581.89 0 988.67 0 1749.66 0c1731.2,0 3134.81,-1403.36 3134.81,-3134.57 0,-1731.38 -1403.61,-3134.97 -3134.81,-3134.97l0.01 -0.01z"/>
  <path class="fil1" d="M965.26 3465.72l298.84 3130.91c4.55,48.04 74.57,48.26 79.48,0.18l449.64 -4488.05c-351.41,389.02 -635.06,846.21 -827.94,1356.97l-0.01 0z"/>
  <path class="fil1" d="M9147.32 3862.08c-143.51,-526.42 -385.88,-1019.3 -710.39,-1452.68l-6425.63 4574.91c-39.24,28.17 -4.31,88.95 39.65,69.05l7072.98 -3190.64 23.41 -0.65 -0.01 0.01z"/>
  <path class="fil1" d="M744.27 4287.18c-136.99,820.47 -30.62,1631.36 269.84,2354.31 26.08,62.64 120.57,35.51 109.69,-31.44l-379.53 -2322.87z"/>
  <path class="fil1" d="M1758.45 6730.3l4257.38 -5920.35c-0.18,-0.23 -0.18,-0.23 -0.18,-0.41 -540.79,-132.1 -1081.76,-155.67 -1600.79,-85.46l-2725.23 5966.4c-20.14,43.96 40.64,79.06 68.82,39.83z"/>
  <path class="fil1" d="M1925.94 6872.63l6070.73 -4965.39c-380,-370.92 -832.01,-674.65 -1340.55,-887.03l-4786.24 5795.93c-30.85,37.38 18.68,87.04 56.07,56.47l0 0.01z"/>
  <path class="fil2" d="M1443.13 7430.09c590.7,860.54 1494.19,1509.8 2591.97,1759.91 2318.57,528.45 4626.48,-922.77 5154.9,-3241.12 110.5,-485.38 134.14,-970.05 81.57,-1437.89l-7828.42 2919.09 -0.01 0z"/>
  <path class="fil1" d="M1559.86 6636.15l2180.6 -5764.91c-514.95,156.9 -995.31,409.11 -1415.54,740.36l-841.84 5003.81c-8.03,47.62 59.73,65.91 76.79,20.72l0 0.01z"/>
  <path class="fil0" d="M4991.81 259.6c-2609.38,0 -4732.44,2122.89 -4732.44,4732.44 0,2609.44 2123.07,4732.28 4732.44,4732.28 2609.44,0 4732.44,-2122.84 4732.44,-4732.28 0,-2609.55 -2123.01,-4732.44 -4732.44,-4732.44zm0 9724.32c-2752.55,0 -4991.81,-2239.51 -4991.81,-4991.88 0,-2752.55 2239.27,-4992.04 4991.81,-4992.04 2752.6,0 4991.88,2239.51 4991.88,4992.04 0,2752.36 -2239.28,4991.88 -4991.88,4991.88z"/>
 </g>
</svg>
